<mxfile host="app.diagrams.net" modified="2024-07-27T11:02:34.175Z" agent="Mozilla/5.0 (Windows NT 10.0; Win64; x64) AppleWebKit/537.36 (KHTML, like Gecko) Chrome/125.0.0.0 Safari/537.36 OPR/111.0.0.0" etag="CB335i1EFCbyeiW8EDvI" version="24.7.1" type="device">
  <diagram name="Page-1" id="jJ7n3A1it99_hdllu_8M">
    <mxGraphModel dx="3657" dy="1084" grid="1" gridSize="10" guides="1" tooltips="1" connect="1" arrows="1" fold="1" page="1" pageScale="1" pageWidth="1654" pageHeight="1169" math="0" shadow="0">
      <root>
        <mxCell id="0" />
        <mxCell id="1" parent="0" />
        <mxCell id="_tZKHd5Szc6mgcDDZj10-1" value="" style="rounded=0;whiteSpace=wrap;html=1;fillColor=default;strokeColor=none;" vertex="1" parent="1">
          <mxGeometry x="-1567" y="395" width="1480" height="380" as="geometry" />
        </mxCell>
        <mxCell id="_tZKHd5Szc6mgcDDZj10-7" value="&lt;div style=&quot;&quot;&gt;&lt;font color=&quot;#1c68bc&quot; style=&quot;font-size: 89px;&quot; data-font-src=&quot;https://fonts.googleapis.com/css?family=Gochi+Hand&quot; face=&quot;Gochi Hand&quot;&gt;Folder structure for R projects&lt;/font&gt;&lt;/div&gt;" style="text;html=1;align=center;verticalAlign=middle;whiteSpace=wrap;rounded=0;" vertex="1" parent="1">
          <mxGeometry x="-1557" y="436" width="1470" height="124" as="geometry" />
        </mxCell>
        <mxCell id="_tZKHd5Szc6mgcDDZj10-16" value="" style="group" vertex="1" connectable="0" parent="1">
          <mxGeometry x="-979.996884734988" y="560.0010831440352" width="340.03055650404974" height="205.79258862502655" as="geometry" />
        </mxCell>
        <mxCell id="_tZKHd5Szc6mgcDDZj10-9" value="" style="curved=1;endArrow=classic;html=1;rounded=0;strokeColor=none;strokeWidth=10;" edge="1" parent="_tZKHd5Szc6mgcDDZj10-16" source="_tZKHd5Szc6mgcDDZj10-13">
          <mxGeometry width="50" height="50" relative="1" as="geometry">
            <mxPoint x="5.6468847349880775" y="137.40891685596483" as="sourcePoint" />
            <mxPoint x="55.64688473498808" y="87.40891685596483" as="targetPoint" />
            <Array as="points" />
          </mxGeometry>
        </mxCell>
        <mxCell id="_tZKHd5Szc6mgcDDZj10-12" value="" style="ellipse;whiteSpace=wrap;html=1;rotation=-5;fillColor=none;sketch=1;curveFitting=1;jiggle=2;strokeWidth=2;strokeColor=#bdbfc3;" vertex="1" parent="_tZKHd5Szc6mgcDDZj10-16">
          <mxGeometry x="39.64688473498808" y="39.40891685596483" width="147" height="89" as="geometry" />
        </mxCell>
        <mxCell id="_tZKHd5Szc6mgcDDZj10-15" value="" style="curved=1;endArrow=classic;html=1;rounded=0;strokeColor=none;strokeWidth=10;" edge="1" parent="_tZKHd5Szc6mgcDDZj10-16" target="_tZKHd5Szc6mgcDDZj10-13">
          <mxGeometry width="50" height="50" relative="1" as="geometry">
            <mxPoint x="5.6468847349880775" y="137.40891685596483" as="sourcePoint" />
            <mxPoint x="55.64688473498808" y="87.40891685596483" as="targetPoint" />
            <Array as="points">
              <mxPoint x="55.64688473498808" y="137.40891685596483" />
              <mxPoint x="5.6468847349880775" y="87.40891685596483" />
            </Array>
          </mxGeometry>
        </mxCell>
        <mxCell id="_tZKHd5Szc6mgcDDZj10-13" value="" style="ellipse;whiteSpace=wrap;html=1;rotation=-5;fillColor=none;sketch=1;curveFitting=1;jiggle=2;strokeWidth=2;strokeColor=#BDBFC3;" vertex="1" parent="_tZKHd5Szc6mgcDDZj10-16">
          <mxGeometry x="5.646884734988021" y="8.408916855964833" width="199" height="138.27" as="geometry" />
        </mxCell>
        <mxCell id="_tZKHd5Szc6mgcDDZj10-14" value="&lt;div style=&quot;&quot;&gt;&lt;font color=&quot;#1c68bc&quot; style=&quot;font-size: 220px;&quot; data-font-src=&quot;https://fonts.googleapis.com/css?family=Gochi+Hand&quot; face=&quot;Gochi Hand&quot;&gt;R&lt;/font&gt;&lt;/div&gt;" style="text;html=1;align=center;verticalAlign=middle;whiteSpace=wrap;rounded=0;rotation=15;" vertex="1" parent="_tZKHd5Szc6mgcDDZj10-16">
          <mxGeometry x="79.64688473498808" y="48.40891685596483" width="118" height="131.63" as="geometry" />
        </mxCell>
        <mxCell id="_tZKHd5Szc6mgcDDZj10-8" value="" style="shape=image;html=1;verticalAlign=top;verticalLabelPosition=bottom;labelBackgroundColor=#ffffff;imageAspect=0;aspect=fixed;image=https://cdn0.iconfinder.com/data/icons/education-1006/32/pen_design_office_vector_business_pencil_write_sign_stationery_graphic-128.png;rotation=15;" vertex="1" parent="_tZKHd5Szc6mgcDDZj10-16">
          <mxGeometry x="197.64688473498808" y="63.40891685596483" width="128" height="128" as="geometry" />
        </mxCell>
      </root>
    </mxGraphModel>
  </diagram>
</mxfile>
